# xmcd
#
# Track frame offsets: 
#        150
#        10725
#        21094
#        31977
#        37281
#        46810
#        58730
#        69503
#        80514
#        92320
#        102913
#        112822
#        124312
#        134552
#        143938
#        156934
#        168785
#        183217
#        194287
#        204441
#        218687
#        230667
#        246932
#        255488
#
# Disc length: 3532 seconds
#
# Revision: 0
# Processed by: cddbd v1.5.2PL0 Copyright (c) Steve Scherf et al.
# Submitted via: ExactAudioCopy v0.99pb4
#
DISCID=480dca18
DTITLE=Adam Green - Sixes and Sevens
DYEAR=2008
DGENRE=
TTITLE0=Festival Song
TTITLE1=Tropical Island
TTITLE2=Cannot Get Sicker
TTITLE3=That Sounds Like A Pony
TTITLE4=Morning After Midnight
TTITLE5=Twee Dee Dee
TTITLE6=You Get So Lucky
TTITLE7=Getting Led
TTITLE8=Drowning Head First
TTITLE9=Broadcast Beach
TTITLE10=It's A Fine
TTITLE11=Homelife
TTITLE12=Be My Man
TTITLE13=Grandma Shirley And Papa
TTITLE14=When A Pretty Face
TTITLE15=Exp.1
TTITLE16=Leaky Flask
TTITLE17=Bed Of Prayer
TTITLE18=Sticky Ricki
TTITLE19=Rich Kids
TTITLE20=You're A Heartbreaker
TTITLE21=Spoonful ( Live )
TTITLE22=I Wanna Die ( Live )
TTITLE23=Salty Candy ( Live )
EXTD=
EXTT0=
EXTT1=
EXTT2=
EXTT3=
EXTT4=
EXTT5=
EXTT6=
EXTT7=
EXTT8=
EXTT9=
EXTT10=
EXTT11=
EXTT12=
EXTT13=
EXTT14=
EXTT15=
EXTT16=
EXTT17=
EXTT18=
EXTT19=
EXTT20=
EXTT21=
EXTT22=
EXTT23=
PLAYORDER=
